<svg width="632" height="537" xmlns="http://www.w3.org/2000/svg"><g fill="none" fill-rule="evenodd"><path fill="#C9DA63" d="M0 424.3l312-31.8 319.4 48-71.6 47.4-241 48.4-282-49.3L0 424.3"/><path fill="#60624C" d="M225.7 90.5h50.6V33h-50.6z"/><path fill="#B1B37F" d="M213.2 0l74.7 12-4 26.5h-63.1L213.2 0"/><path fill="#60624C" d="M179.6 444l-18.8-233.8 296.4 10.7L452 444H179.6"/><path fill="#848852" d="M167 444h294.8v-35.8L167 414.9V444"/><path fill="#B1B37F" d="M253.5 444H382V424l-128.5-3.2V444"/><path fill="#CFD0A5" d="M269.2 421.1l-9.4-132 102.5 9.8-3 124.4-90.1-2.2"/><path fill="#987754" d="M266 299l5.4 62.8 79.7 5 .5-58.5L266 299M272.5 366.8l78.6 5.1.5 46.4-74.4-3-4.7-48.5"/><path fill="#B1B37F" d="M185.4 350.4l68.1 3.2v12H186l-.5-15.2"/><path fill="#CFD0A5" d="M191.7 350.7l-5.8-61.6 59.1-5 1.3 69.1-54.6-2.5"/><path fill="#1C1D15" d="M193.3 297.1l44-5.3.7 61-40-1.8-4.7-53.9"/><path fill="#987754" d="M182 304.5l68.8-8.3v14.6l-67.4 3.1-1.3-9.4M250.6 326.7l-66.5-9.6-.2 8 68 14.8-1.3-13.2M249.3 344.6l-1.4 5.8-64-2.4-1-9.4 66.4 6"/><path fill="#514538" d="M127.2 212l26-163 277.7 8 62.6 163-366.3-8"/><path d="M367.7 55.2l18 .5L421.5 210l-20.2-154 15.3.5 24.9 162.2-42.4-.9-31.3-162.7zm-25 161.5l-32.3-.7-8.5-162.8-25.5-.7-15.7 162.4-25.5-.6-14-156.4-21.4 155.6-13.4-.3L185 53.4l-24 159.3-16.3-.4L171 49.4l23.1.7 2.4 96.9L208 50.5l29 .9 15.6 120.2-.9 1.8L257.4 52l58.3 1.6 10.8 120.7 3.7-120.2 12.4 162.6z" fill="#6E604F"/><path fill="#B1B37F" d="M127.2 212l366.3 8-3 25.9L128 232.7l-.9-20.8"/><path fill="#60624C" d="M244.1 236.9l-3.6-77.4 65.9-47 64 50.2-.5 78.8-106 13-19.8-17.6"/><path fill="#B1B37F" d="M306.4 112.5l-65.9 47-17.4 13-9.9-14.8 92.3-58.2 87.3 65.4-9 8.5-13.4-10.7-64-50.2M371.3 361.5l69-4.5v18l-69.9-.5.9-13"/><path fill="#CFD0A5" d="M379.3 361v-69.4l54.7 7.7-3.2 58.3-51.5 3.4"/><path fill="#1C1D15" d="M386.5 360.5l-2.2-60.3 43.4 4-3 53.8-38.2 2.5"/><path fill="#987754" d="M370.4 300.6l74.8 24.6-3.6 15.7-73-27.8 1.8-12.5M434.7 343l.5 7.1-61.4 7.2-2.5-13.9 63.4-.4"/><path fill="#4F513E" d="M253.5 353.6l4.6 5.6.7 10.5-64.1 1.1h-.3l-8.5-5.2h67.6v-12M440.3 357l6 6 1.3 21.9-71.2-4.3-6-6.1 69.9.4V357"/><path fill="#8B6847" d="M275 362l-5-59.5 81.6 9.6v-3.8L266 299l5.3 63 3.6.2M277.2 415.4l-4.7-48.6 78.6 5.1v3.4l-74.6-4.7 4.5 44.9-3.8-.1"/><path fill="#CFD0A5" d="M278.8 238.1l-6.3-72.4 67.6 5.4 1 69.3-62.3-2.3"/><path fill="#1C1D15" d="M286.2 238.4l-7-64.4 50.8 4.2 1.6 61.9-45.4-1.7"/><path fill="#B1B37F" d="M266.2 235.1l84.6 3.2 1 17-85.8-6.8.2-13.4"/><path fill="#4F513E" d="M350.8 238.3l5.7 8.9-.3 15.9-87.5-9.2-2.7-5.4 85.8 6.8-1-17M244.1 236.9l.6 10.7-81.4-5.6-.6-8 81.4 2.9M370 241.5l.3 18.1 85.9 5.8.4-20.8-86.7-3.1M225.7 38.5h50.6v8.9l-50.6-3.5v-5.4"/><path fill="#E5EA9B" d="M253.5 444L207 480.3 220 519l98.7 17.3L484.5 503l-119-23.2L382 444H253.5"/><path fill="#987754" d="M266.3 192.1l78.5-8.3v14.6l-77 3.1-1.5-9.4M265.2 216.5l97.2 1-.6 16.4-95.7-4.7-.9-12.7"/></g></svg>