<svg width="326" height="326" xmlns="http://www.w3.org/2000/svg"><g fill="none" fill-rule="evenodd"><circle fill="#74ABCC" cx="163" cy="163" r="163"/><path d="M282.83 132.074c-.562-3.932-2.809-7.022-5.897-9.27L171.923 47.81c-2.528-1.685-5.336-2.809-8.424-2.809-3.089 0-5.896.843-8.423 2.809l-20.497 14.606v-4.213c0-6.18-5.054-11.236-11.231-11.236h-19.374c-6.177 0-11.231 5.056-11.231 11.236v33.987l-42.678 30.616c-3.089 2.247-5.335 5.618-5.897 9.27-.561 3.932.281 7.583 2.527 10.673 2.808 3.651 7.02 6.18 11.793 6.18 3.089 0 5.896-.843 8.423-2.81l.843-.561v110.387c0 1.405.561 2.528 1.404 3.652.842.842 2.246 1.404 3.65 1.404H254.47c1.404 0 2.527-.562 3.65-1.404.842-.843 1.404-2.247 1.404-3.652V145.557l.842.561c2.527 1.686 5.335 2.81 8.423 2.81 4.774 0 8.985-2.248 11.793-6.18 1.965-3.09 2.808-7.022 2.246-10.674zM102.85 58.202c0-.843.562-1.405 1.405-1.405h19.373c.843 0 1.404.562 1.404 1.405v11.235l-21.9 15.73V58.201h-.281zm81.707 192.967h-42.116v-65.727c0-.843.561-1.404 1.403-1.404h39.31c.842 0 1.403.561 1.403 1.404v65.727zm64.86 0h-55.033v-65.727c0-6.18-5.054-11.235-11.23-11.235h-39.31c-6.177 0-11.23 5.056-11.23 11.235v65.727H77.58V138.534l85.918-61.232 85.918 61.232V251.17zM272.16 137.13c-.843 1.124-2.247 1.966-3.65 1.966-.843 0-1.685-.28-2.527-.842l-102.484-73.03-102.484 73.03c-.842.561-1.685.842-2.527.842-1.404 0-2.808-.562-3.65-1.966-1.404-1.966-.842-4.775 1.123-6.18l105.01-74.715c.843-.561 1.686-.842 2.528-.842.842 0 1.685.28 2.527.842l105.01 74.435c1.966 1.685 2.528 4.213 1.124 6.46zm-119.33 76.681c-3.65 0-6.74 3.09-6.74 6.742 0 3.651 3.09 6.74 6.74 6.74 3.65 0 6.738-3.089 6.738-6.74 0-3.652-3.089-6.742-6.739-6.742zm-15.163-83.141A25.768 25.768 0 0 0 163.5 156.51a25.768 25.768 0 0 0 25.831-25.841 25.768 25.768 0 0 0-25.831-25.842 25.768 25.768 0 0 0-25.832 25.842zm43.24 0c0 9.55-7.862 17.415-17.408 17.415-9.547 0-17.408-7.865-17.408-17.415 0-9.55 7.861-17.415 17.408-17.415 9.546-.281 17.408 7.584 17.408 17.415z" fill="#FFF" fill-rule="nonzero"/></g></svg>