<svg width="1452" height="270" xmlns="http://www.w3.org/2000/svg"><g fill="none" fill-rule="evenodd"><g stroke="#000" stroke-linecap="round" stroke-linejoin="round" stroke-width="7"><path d="M236 107.9C214.7 88.8 138 4 116.9 4.5c-21.1.5-105 109.2-112 122.4-6.9 13.3 23.8-10.3 56.4-19 14.7-4 37-11.6 63.5-11.6 24 0 75.3 6.1 84.8 20.3 9.6 14.2 9.6 134.5 0 142.3-9.5 7.9-148.3 12.1-158.8 0-10.4-12-19-116 0-127.2 19.1-11.3 112-12 127 0 15.1 12 11.1 83.6 0 95.4-11 11.8-83.3 7.2-95.2 0-12-7.1-5.6-57 0-63.6 5.6-6.5 52.2-5.7 63.5 0 11.3 5.7 7.5 24.3 0 31.8-5 5-15.6 5-31.8 0M272.5 90.1a279 279 0 0 1-7.3 29.8c-2.8 7.5-11 40.3-13.8 58-3 18.4.4 14.2-1.2 31.7-1 11.7.3 20.3 4 25.8 1 2.7 3.2 5.5 6.4 8.4 4.7 4.4 15.3 4.4 20.1-8.4a130 130 0 0 0 5.3-40 98.7 98.7 0 0 0-13.5-45.3 157 157 0 0 0-36.5-42.2"/></g><path d="M373.7 207.4h11V251h-11v-4.6a18 18 0 0 1-13.4 5.7c-5.6 0-10.5-2.2-14.6-6.5a22.8 22.8 0 0 1-6.2-16.3c0-6.7 2-12.2 6-16.5a19 19 0 0 1 21.9-5c2.2 1 4.4 2.5 6.3 4.4v-4.8zm-11.5 9c-3.4 0-6.2 1.2-8.4 3.6a12.9 12.9 0 0 0-3.4 9.2 13 13 0 0 0 3.4 9.3c2.3 2.4 5.1 3.6 8.5 3.6 3.4 0 6.3-1.2 8.5-3.6a13 13 0 0 0 3.4-9.4c0-3.8-1.1-6.8-3.4-9.2a11.5 11.5 0 0 0-8.6-3.5zm104.1-.2l-9 5c-1.8-1.7-3.5-3-5.2-3.7-1.6-.7-3.6-1-5.8-1-4.1 0-7.4 1.2-10 3.6a12.5 12.5 0 0 0-3.7 9.4 12 12 0 0 0 3.6 9.1c2.5 2.4 5.6 3.6 9.6 3.6a14 14 0 0 0 11.4-5l8.6 5.8c-4.7 6-11.2 9.1-19.8 9.1-7.6 0-13.6-2.2-18-6.8a22.3 22.3 0 0 1-6.5-16 22.4 22.4 0 0 1 12-20c3.8-2 8-3 12.7-3 4.3 0 8.2.9 11.7 2.6 3.4 1.7 6.2 4.2 8.4 7.3zm80.5 0l-9.1 5c-1.7-1.7-3.4-3-5-3.7-1.7-.7-3.7-1-6-1-4 0-7.3 1.2-9.8 3.6a12.5 12.5 0 0 0-3.8 9.4 12 12 0 0 0 3.6 9.1c2.5 2.4 5.6 3.6 9.6 3.6a14 14 0 0 0 11.4-5l8.6 5.8c-4.7 6-11.3 9.1-19.8 9.1-7.6 0-13.6-2.2-18-6.8a22.3 22.3 0 0 1-6.5-16 22.4 22.4 0 0 1 12-20c3.8-2 8-3 12.7-3 4.3 0 8.2.9 11.6 2.6 3.5 1.7 6.3 4.2 8.5 7.3zm58.3-9.9a23 23 0 0 1 23.1 22.9 22.9 22.9 0 1 1-38.2-17c4.4-4 9.4-5.9 15.1-5.9zm.2 10.3c-3.4 0-6.3 1.2-8.5 3.5a12.6 12.6 0 0 0-3.4 9.1c0 3.8 1.1 6.9 3.4 9.2 2.2 2.4 5 3.6 8.4 3.6 3.4 0 6.3-1.2 8.5-3.6 2.3-2.4 3.5-5.4 3.5-9.2 0-3.7-1.2-6.8-3.4-9-2.2-2.4-5-3.6-8.5-3.6zm59.8-9.2h11v5c1.8-2 3.9-3.5 6.1-4.6 2.3-1 4.8-1.5 7.5-1.5a13.9 13.9 0 0 1 12.7 7.9 17.4 17.4 0 0 1 22.8-5.7c2.3 1.4 4 3.3 5 5.6s1.6 6.1 1.6 11.4V251h-11v-22.1c0-5-.6-8.3-1.9-10-1.2-1.8-3-2.7-5.5-2.7-1.8 0-3.5.6-5 1.6a9.5 9.5 0 0 0-3.3 4.5c-.7 1.9-1 4.9-1 9V251H693v-21.1c0-3.9-.3-6.7-.9-8.5-.5-1.7-1.4-3-2.5-3.9a6.8 6.8 0 0 0-4.2-1.3c-1.8 0-3.5.6-5 1.7a9.7 9.7 0 0 0-3.3 4.5c-.7 2-1 5-1 9.2V251h-11v-43.6zm105 0h11v5c1.9-2 4-3.5 6.2-4.6 2.3-1 4.8-1.5 7.5-1.5a13.9 13.9 0 0 1 12.6 7.9c1.8-2.6 4-4.5 6.4-5.9a17.4 17.4 0 0 1 16.5.2c2.3 1.4 4 3.3 5 5.6s1.6 6.1 1.6 11.4V251h-11v-22.1c0-5-.7-8.3-1.9-10-1.2-1.8-3-2.7-5.5-2.7-1.9 0-3.5.6-5 1.6a9.5 9.5 0 0 0-3.3 4.5c-.8 1.9-1.1 4.9-1.1 9V251h-11v-21.1c0-3.9-.3-6.7-.9-8.5-.6-1.7-1.4-3-2.6-3.9a6.8 6.8 0 0 0-4.1-1.3c-1.8 0-3.5.6-5 1.7a9.7 9.7 0 0 0-3.3 4.5c-.7 2-1.1 5-1.1 9.2V251h-11v-43.6zm125.6-1a23 23 0 0 1 23.1 22.8 22.9 22.9 0 1 1-38.2-17c4.4-4 9.5-5.9 15.1-5.9zm.2 10.2c-3.4 0-6.2 1.2-8.5 3.5a12.6 12.6 0 0 0-3.3 9.1c0 3.8 1 6.9 3.3 9.2 2.2 2.4 5 3.6 8.5 3.6 3.4 0 6.2-1.2 8.5-3.6 2.3-2.4 3.4-5.4 3.4-9.2 0-3.7-1.1-6.8-3.3-9-2.3-2.4-5.1-3.6-8.6-3.6zm92-26h11V251h-11v-4.6a18 18 0 0 1-13.4 5.7c-5.6 0-10.5-2.2-14.6-6.5a22.8 22.8 0 0 1-6.1-16.3c0-6.7 2-12.2 6-16.5a19 19 0 0 1 21.8-5c2.3 1 4.4 2.5 6.4 4.4v-21.6zm-11.4 25.8c-3.4 0-6.2 1.2-8.5 3.6a12.9 12.9 0 0 0-3.3 9.2 13 13 0 0 0 3.4 9.3c2.3 2.4 5 3.6 8.4 3.6 3.5 0 6.3-1.2 8.6-3.6a13 13 0 0 0 3.4-9.4c0-3.8-1.1-6.8-3.4-9.2a11.5 11.5 0 0 0-8.6-3.5zm93.6-9h10.9V251H1070v-4.6a18 18 0 0 1-13.4 5.7c-5.6 0-10.5-2.2-14.6-6.5a22.8 22.8 0 0 1-6.2-16.3c0-6.7 2-12.2 6-16.5a19 19 0 0 1 21.8-5c2.3 1 4.4 2.5 6.4 4.4v-4.8zm-11.5 9c-3.4 0-6.2 1.2-8.4 3.6a12.9 12.9 0 0 0-3.4 9.2 13 13 0 0 0 3.4 9.3c2.3 2.4 5.1 3.6 8.4 3.6 3.5 0 6.3-1.2 8.6-3.6a13 13 0 0 0 3.4-9.4c0-3.8-1.1-6.8-3.4-9.2a11.5 11.5 0 0 0-8.6-3.5zm62.8-25h10.9v16h6.4v9.4h-6.4V251h-11v-34.2h-5.5v-9.4h5.6v-16zm55.5-1.9a6.9 6.9 0 0 1 7 7.1c0 2-.7 3.6-2 5-1.4 1.4-3 2-5 2-1.9 0-3.5-.6-4.9-2a7 7 0 0 1-2-5.1c0-2 .6-3.6 2-5 1.3-1.3 3-2 5-2zm-5.5 18h11V251h-11v-43.6zm69.3-1.2a23 23 0 0 1 23.1 22.9 22.9 22.9 0 1 1-38.2-17c4.4-4 9.5-5.9 15.1-5.9zm.2 10.3c-3.4 0-6.2 1.2-8.5 3.5a12.6 12.6 0 0 0-3.3 9.1c0 3.8 1 6.9 3.3 9.2 2.2 2.4 5 3.6 8.5 3.6 3.4 0 6.2-1.2 8.5-3.6 2.3-2.4 3.4-5.4 3.4-9.2 0-3.7-1.1-6.8-3.3-9-2.3-2.4-5.1-3.6-8.6-3.6zm59.9-9.2h10.9v4.5c2.4-2.1 4.7-3.5 6.7-4.4 2-.8 4-1.2 6.2-1.2 4.3 0 8 1.5 11 4.5 2.5 2.6 3.8 6.4 3.8 11.4V251h-10.8v-19.1c0-5.2-.2-8.7-.7-10.4-.5-1.7-1.3-3-2.4-3.9a6.8 6.8 0 0 0-4.3-1.3 8 8 0 0 0-5.8 2.2 11.9 11.9 0 0 0-3.3 6.2c-.3 1.3-.4 4.3-.4 8.8V251h-11v-43.6z" fill="#0015BB" fill-rule="nonzero"/><path d="M312.6 23.2c-.1-.1-.1-.3.1-.5l.5-.5c.1-.1.1-.2 0-.2l-1.2.2c-3 1.2-5.9 3.6-8.9 7.3-3 3.7-5.9 8-8.6 13a193.2 193.2 0 0 0-13.8 31.3 156 156 0 0 0-3.8 12.3c-.9 3.4-1.2 5.4-.9 6.1-1.5.7-2.9 1-4.3 1.1-1.4 0-2.2-1-2.5-3.3.5-2.8 1.6-6.6 3.2-11.4a397.3 397.3 0 0 1 13.1-32.2c2.6-5.6 5.2-10.5 7.9-14.8A88.7 88.7 0 0 1 305.2 16c1.9-1.2 3.7-2 5.6-2.5 1.9-.5 3.8-.3 5.8.5 1.2.4 2.2 1.7 3 3.8a62.1 62.1 0 0 1 3 20.6c0 3.7-.1 7.2-.3 10.5a1829.4 1829.4 0 0 0-1.9 35.9 113 113 0 0 1 7.8-22 64 64 0 0 1 6.4-10.6c2.4-3.2 5-5.4 7.8-6.6 3.2-.3 5.3 1.3 6.2 4.7a70.2 70.2 0 0 1 2.2 16.8 850.3 850.3 0 0 0 2.6 29.4c.3 1.4.5 1.9.8 1.5l5.2-8.8c1.9-3.2 3.8-6.2 5.8-9.1 2-2.9 4-5.3 6.1-7.4 2-2 4.1-3.4 6.1-3.9 2.3-.5 4.1.6 5.5 3.3 1.4 2.7 2.5 6.4 3.3 11.1.8 4.7 1.4 10 1.9 15.8l1.5 17.2a267 267 0 0 0 1.9 15.5c.7 4.7 1.8 8.3 3.1 10.7-1.9.8-3.5.6-4.8-.6a26.6 26.6 0 0 0-4.4-3.2c-.4-1.3-.7-3.6-.9-6.9a3427.7 3427.7 0 0 0-2.6-36.4c-.5-3.8-1-7-1.7-9.4-.7-2.5-1.5-3.8-2.4-4.1-.7 0-1.1-.2-1.4-.5-.3-.3-.9 0-1.8 1.1a84.5 84.5 0 0 0-18.6 33 122.6 122.6 0 0 0-4.8 28.2c-1.3.4-2.2.2-2.5-.7a9.9 9.9 0 0 0-2.3-3.1l.3-6.3a425.1 425.1 0 0 0-.4-30 705.8 705.8 0 0 0-2.1-33.3c-.5-4.7-1.1-8.2-1.8-10.6-.8-.1-1.9.5-3.2 2a35.2 35.2 0 0 0-3.9 5.3 117.5 117.5 0 0 0-5.5 10.5c-2.7 7.2-4.7 13.2-6.1 18.1a124.3 124.3 0 0 0-4.1 21.1 66 66 0 0 1-.8 7.2l-.7 9.4a105.6 105.6 0 0 0-.1 16.3l.6 10.7c-2 .1-3.5-.2-4.6-1.1l-5-4.5a583 583 0 0 0 2.1-25.1l.3-4.3a312.6 312.6 0 0 0 1.2-21.4A330.2 330.2 0 0 0 313 87a613.4 613.4 0 0 0 .6-36.3c0-5.1 0-10.3-.2-15.4-.1-5.1-.4-9.2-.8-12.1zm92 70.8a60.7 60.7 0 0 1 17.4 3.5c3 1 5.6 2.1 8.1 3.4 2.5 1.3 4.5 2.7 6.1 4.3 1.6 1.5 2.5 3.7 2.8 6.7.3 3 0 6.3-.6 9.9a68 68 0 0 1-7.8 21.4c-1.7 3-3.6 5.6-5.6 7.6-2 2-3.9 3-5.6 3-3 0-5.4-.7-7.4-2.1-2-1.4-3.6-3.1-4.8-5.1a32.4 32.4 0 0 1-3.8-12c-.4-7-.5-13.3-.2-18.8s.7-10 1.4-13.6a21 21 0 0 0-3.8-4.6l1.6-1.2c1-.8 1.8-1.6 2.2-2.4zm7.2 47.6l1.6 1.7a7 7 0 0 0 2.5 1.4c1 .3 2 .4 3.1.1 1-.3 2.2-1 3.4-2.2a37.1 37.1 0 0 0 10.3-20.3c.5-3.1.4-5.9-.2-8.3a9.3 9.3 0 0 0-2.9-5.2l-2.7-1.7a60.7 60.7 0 0 0-7.1-2.6l-6.8-1.9a73.4 73.4 0 0 0-3.5 24.5c0 3.5.3 6.6.8 9.2.5 2.6 1 4.4 1.5 5.3zm37.8-50.8c-.1-1.2.5-1.5 1.9-.9l4.3 1.9a310.9 310.9 0 0 1 1.8 12.4 442.7 442.7 0 0 1 1 12.6c1.2-3 2.7-5.9 4.4-8.5 1.7-2.6 4-4.8 6.7-6.7 2.7-1.9 6-3.2 9.8-4.1a51 51 0 0 1 13.7-.9c0 1-.4 2-1.1 2.7-.7.7-2.4 1.3-5.1 1.7-3.9.7-7.2 2-10.1 3.9a34 34 0 0 0-12.4 14.8 90.7 90.7 0 0 0-3.1 7.9 274.3 274.3 0 0 0-.9 12.1l-.2 7.2c0 2.3 0 4.2.3 5.5.1.7-.2 1.2-.9 1.5-.7.3-1.6.6-2.5.7-1 .1-1.8 0-2.6-.2-.8-.3-1.2-.7-1.2-1.4.3-13.7-.1-25.6-1.1-35.5l-2.7-26.7zm80.2 4.4l-.9 5a345 345 0 0 0-2.9 19.6c-.4 3.7-.6 7.3-.7 10.6 0 3.3.1 6.2.6 8.5s1.2 3.8 2.3 4.3c3 1.5 6.2 1 9.4-1.5s7-6.2 11.2-11.3c.4 0 .4.5.1 1.6-.3 1-.9 2.2-1.6 3.5l-2.2 3.8c-.7 1.3-1.3 2.1-1.7 2.5a33 33 0 0 1-11 8.5c-2.3 1-4.4 1.4-6.5 1.3-2-.1-3.8-1.3-5.1-3.6a18 18 0 0 1-1.2-5.9 63 63 0 0 1 .6-13.7l.6-4.4a108 108 0 0 1-9.6 14.8 60.1 60.1 0 0 1-10.6 11 18.3 18.3 0 0 1-9.6 4.3c-3 .2-5.2-1.5-6.8-5.1-1-3.5-1-7.4 0-11.7 1-4.3 2.3-8.2 4.2-11.7a126 126 0 0 1 8.8-13.2c3-4 6.3-7.4 9.8-10.2a35 35 0 0 1 10.9-6.1c3.8-1.3 7.8-1.6 11.9-.9zM492.2 146c1.3.3 3.5-.7 6.4-3 3-2.3 6-5.4 9.2-9.5 3.2-4 6.1-8.8 8.7-14.2a56.3 56.3 0 0 0 5.1-17.1h-2.3a7 7 0 0 0-3.5 1.2c-5 3.3-9.4 7.2-13 11.7a66.6 66.6 0 0 0-8.4 13c-2 4.2-3.2 8-3.6 11.3-.4 3.3 0 5.5 1.4 6.6zm56.6-59.4c0-1.2.3-1.9 1-2.1.7-.2 1.4-.2 2.1.1.7.3 1.5.7 2.2 1.3l1.5 1.3c.3 3.5.1 8.2-.4 14.2s-.8 13.5-.8 22.4a78.6 78.6 0 0 1 6.1-16.5c1.4-3 3-5.8 4.6-8.4a34 34 0 0 1 4.9-6.2c1.6-1.5 3.1-2.3 4.6-2.3 1.5 0 2.8 1.1 4 3.4a104.1 104.1 0 0 1 1.1 11.6 691.2 691.2 0 0 0 .9 20.8l4.1-9.7c1.5-3.5 3.2-6.7 4.9-9.6a25 25 0 0 1 5.6-6.7 6 6 0 0 1 6.4-1c1 .4 1.8 1.6 2.2 3.7.4 2 .7 4.5 1 7.3l.9 8.9c.3 3.1 1 6 1.9 8.5 1 2.5 2.3 4.6 4 6.1 1.7 1.5 4 2.1 7 1.7a43.2 43.2 0 0 1 5.1.4c.3.1.5.3.4.6l-.1 1.2c-5 2.5-9 3.4-12.1 2.5-3.1-.9-5.6-2.7-7.4-5.6-1.8-2.9-3-6.3-3.8-10.4-.7-4-1.2-8.1-1.5-12.1-.3-1.7-.8-2.5-1.7-2.2-.9.3-2 1.3-3.2 3a107 107 0 0 0-11.8 23.3l-2.3 6.7c-.7 1.2-1.7 1.5-3.2 1a4.2 4.2 0 0 1-2.8-3c-.5-2.1-.8-4.8-.9-7.9a225.6 225.6 0 0 1 .3-18.8v-7.7c-.1-2.1-.4-3.6-.8-4.4-.4-.8-1.1-.6-2.2.6a81.3 81.3 0 0 0-6.3 11.8 128.8 128.8 0 0 0-8.8 27.9c-1 4.7-1.6 9-1.9 12.9-2.3.5-3.9.2-4.8-.9-1-1.1-1.7-2.3-2.4-3.5.3-1.7.5-5.1.7-10.1a1980.4 1980.4 0 0 0 1.2-36.7l.5-17.4zm70.6-61c.4 0 .9-.2 1.5-.5s1.2-.4 1.9-.3c.7.1 1.3.7 1.8 1.8.5 1 1 3 1.2 5.6l.8 12.2a3337.5 3337.5 0 0 0 5.2 78.6A77 77 0 0 1 645 99.3c2.4-2.7 5-4.8 7.8-6.3 2.3-1 4.2-1.4 5.8-1.5a8.7 8.7 0 0 1 6.9 2.7 14 14 0 0 1 1.7 2.2 28 28 0 0 1 1.7 13.4 51.8 51.8 0 0 1-12.3 28.8 32 32 0 0 1-18.4 10.7l-3.6.1c.3 2 .3 3.3.2 4-.1.7-.3 1-.6 1.2-.5.5-1.4.8-2.6.9-1.2 0-2.4 0-3.6-.3a3614 3614 0 0 1-4.1-55.8 1494.8 1494.8 0 0 1-1.5-21.4c-.1-5-.4-10.7-.9-16.8a125907.7 125907.7 0 0 1-2.3-30.4c-.3-3.6-.2-5.3.2-5.2zM653 101c-1.9 1-3.8 3-5.9 5.6-2 2.7-4 5.9-5.8 9.7a78.5 78.5 0 0 0-6.9 26.1c2.7.7 5.4.3 8.2-1.1a28 28 0 0 0 7.8-5.9 57 57 0 0 0 11.1-18.7c1.1-3.3 1.8-6.3 1.9-9.2a11 11 0 0 0-1.6-6.9c-1-1.7-2.3-2.4-4.2-1.9-1.9.5-3.4 1.2-4.6 2.3zm63.4-5.8l-.9 5a345 345 0 0 0-2.9 19.6c-.4 3.7-.6 7.3-.7 10.6 0 3.3.1 6.2.6 8.5s1.2 3.8 2.3 4.3c3 1.5 6.2 1 9.4-1.5s7-6.2 11.2-11.3c.4 0 .4.5.1 1.6-.3 1-.9 2.2-1.6 3.5l-2.2 3.8c-.7 1.3-1.3 2.1-1.7 2.5a33 33 0 0 1-11 8.5c-2.3 1-4.4 1.4-6.5 1.3-2-.1-3.8-1.3-5.1-3.6a18 18 0 0 1-1.2-5.9 63 63 0 0 1 .6-13.7l.6-4.4a108 108 0 0 1-9.6 14.8 60.1 60.1 0 0 1-10.6 11 18.3 18.3 0 0 1-9.6 4.3c-3 .2-5.2-1.5-6.8-5.1-1-3.5-1-7.4 0-11.7 1-4.3 2.3-8.2 4.2-11.7a126 126 0 0 1 8.8-13.2c3-4 6.3-7.4 9.8-10.2a35 35 0 0 1 10.9-6.1c3.8-1.3 7.8-1.6 11.9-.9zM678.8 146c1.3.3 3.5-.7 6.4-3 3-2.3 6-5.4 9.2-9.5 3.2-4 6.1-8.8 8.7-14.2a56.3 56.3 0 0 0 5.1-17.1h-2.3a7 7 0 0 0-3.5 1.2c-5 3.3-9.4 7.2-13 11.7a66.6 66.6 0 0 0-8.4 13c-2 4.2-3.2 8-3.6 11.3-.4 3.3 0 5.5 1.4 6.6zM819.4 31.8l2.3 5.2c.3.8.6 2.1.9 4a163.4 163.4 0 0 0-7.8-5.9c-1.2-.7-2.5-1.4-4-1.9a36 36 0 0 0-5.2-1.4c-5.3-.7-10.4-.5-15.1.6-4.7 1-8.7 2.8-12 5.1a19 19 0 0 0-6.9 8.6 15.9 15.9 0 0 0 0 11.1c1.5 4.4 3.7 8.6 6.8 12.7a132 132 0 0 0 23.1 22.8 1066 1066 0 0 0 24.1 17.7c3.5 2.4 6.1 4.5 8 6.2 4.1-2.1 8-4 11.6-5.4 3.6-1.5 7.3-3 11.2-4.4h1.2c.5.1.6.5.2 1.2a54 54 0 0 1-4.3 3.4 893.3 893.3 0 0 0-14.7 10.6c3.9 3.9 6.4 7.4 7.6 10.5 1.2 3.1 1.3 6.2.2 9.2-1 3-3.3 6-6.6 9.2a104.6 104.6 0 0 1-24.2 16.3c-4 1.7-7.7 2.8-11.1 3.1-3.4.3-6.1-.3-8.2-1.9-2-1.6-2.8-4.6-2.1-9a50 50 0 0 1 11.8-20c5.7-6.1 12.3-12.3 19.8-18.6 0-.4-1.3-1.5-3.9-3.4l-10-7.2c-4-3-8.5-6.3-13.4-10.2-4.9-3.9-9.5-8-14-12.2-4.5-4.3-8.4-8.7-11.9-13.4a41 41 0 0 1-7-13.8 29.5 29.5 0 0 1 3.1-25.7A27.7 27.7 0 0 1 781 25c3-1 6.2-1.7 9.3-2.4a28.3 28.3 0 0 1 19.2 2.1c3.3 1.5 6.6 3.9 9.9 7.1zM803 158.4c-.3 1 0 1.7 1 2.3 1 .6 2.5.8 4.6.7a32 32 0 0 0 8.1-1.9 68 68 0 0 0 11.7-5.7c3.3-2.3 5.9-4.7 7.7-7.4 1.8-2.7 2.9-5.3 3.2-7.9A11.6 11.6 0 0 0 832 126a119 119 0 0 0-16.3 13.2 80.5 80.5 0 0 0-8.7 10 17.9 17.9 0 0 0-4 9.2zm73.8-61l3.4-1.1c1.9-.6 3.4-.7 4.6-.3 3.9-.1 6.8.9 8.9 3 2 2.1 2.2 6.3.5 12.4a50.7 50.7 0 0 1-10.1 17 99.7 99.7 0 0 1-14.9 13c1.3 3.5 3.3 5.4 6 5.8 2.7.4 5.5 0 8.4-1.3 3-1.3 5.8-3 8.6-5.1a122.5 122.5 0 0 0 13.5-11.7c1.7-1.7 3.4-3.7 5.3-6.1.4-.3.6-.2.7.1l-.1 1.5-.6 2.8-1.2 2.5-1.7 2.4c-.7.9-1.7 1.9-2.9 3.1a94.7 94.7 0 0 0-4.4 4.8l-5.8 5.5a38.8 38.8 0 0 1-5.9 4.7 20.4 20.4 0 0 1-15.3 2.8c-2.7-1-4.8-2-6.4-3a15.2 15.2 0 0 1-5.6-6.4c-.4-1-.7-1.7-.8-2.4-.7-2.7-1-6.3-.8-10.8.1-4.5 1.5-10.4 4-17.6 1.7-3.7 3.6-6.9 5.6-9.5 2-2.6 4.3-4.6 7-6.1zm-8.8 35.4a58.8 58.8 0 0 0 12.7-9.7 39 39 0 0 0 5.4-7.3c1.5-2.7 2.4-5.5 2.5-8.4.4-2 .3-3.4-.2-4.2-.3-.4-.5-.6-.8-.6-2.3-1-4.5-.7-6.8 1a25 25 0 0 0-6.2 7.4 54 54 0 0 0-4.7 10.7c-1.3 4-1.9 7.6-1.9 11.1zm56.6-20.2l.6 5.6 1.4 12.2 1.9 15.5a1293.9 1293.9 0 0 1 3.7 29l1 7.3-2-.4c-.5-.1-1-.5-1.6-1l-1.9-2.3-3.1-4.3a1050.6 1050.6 0 0 1-6.6-54.4 69.3 69.3 0 0 1-5.2 6.4c-1 1-1.7 1.6-2 1.6-.4 0-.5-.6-.2-1.8l.4-2 .4-1.8c.1-.5.3-1 .6-1.4a43.7 43.7 0 0 0 4.2-7.6c.5-1.3 1-2.6 1.2-3.8a137.6 137.6 0 0 1-.6-15.2V74.5a494.3 494.3 0 0 1 1.5-39.2 75 75 0 0 1 1.1-8.1c1-3.9 2.4-6.8 4.3-8.9 2-2 4-3.3 6.1-3.6 2.1-.3 4.2.2 6.3 1.6 2 1.4 3.6 3.6 4.7 6.5 1.2 3 1.8 6.7 1.8 11.4s-.4 9.8-1.2 15.3a206 206 0 0 1-3.3 17.3 393.3 393.3 0 0 1-13.5 45.8zm-1.6-11.4a279.7 279.7 0 0 0 12.9-54c1-7.5 1.3-13.5 1-18.1-.3-4.6-1.3-7-2.9-7.1-2.5-1-4.5 0-6 2.6a37.7 37.7 0 0 0-3.5 11.2c-.9 4.8-1.4 10.3-1.7 16.5-.3 6.2-.4 12.4-.3 18.5a1290.7 1290.7 0 0 0 .5 30.4zm82.8-54.2h-3.1l-1.2-.1c-.2 0-.3-.2-.3-.3l-.2-.6c-.3 0-.6-.6-1.1-1.9L998 40a18 18 0 0 0-3.1-4.1 6.2 6.2 0 0 0-4.5-1.9c-3.7-1-6.8-.4-9.2 1.5-2.4 2-4.4 4.7-5.9 8.4a54.1 54.1 0 0 0-3.4 12.7 175.3 175.3 0 0 0-2.1 28.5c0 4.5 0 8.1-.2 10.9a517.1 517.1 0 0 1 18.8-.8 4 4 0 0 1 2 1.2 10.8 10.8 0 0 1 2.7 4.4c.2.7.2 1-.1 1a69.6 69.6 0 0 1-11.8 1.2 133.6 133.6 0 0 1-11.4.6c.1 6.8.4 12.9.8 18.3a2786.2 2786.2 0 0 1 2.8 44.5c-.3 1-1 1.6-2.1 1.5a67.7 67.7 0 0 1-4.3-.5l-.3-1.8-.2-5.4a701.5 701.5 0 0 0-1.3-28.8l-1.8-27.2a504 504 0 0 1-16.4 1c-1.3 0-3 0-5 .2-1 0-1.4-.2-1.4-.7 0-.5.2-1 .5-1.8l1.2-2.1.9-1.4c.8-.3 3.1-.6 7-1L963 97c-.7-12.8-.6-23.5.3-32.1.9-8.6 2.1-15.6 3.8-20.9a36 36 0 0 1 5.7-11.9c2.1-2.6 4.1-4.3 6-5.1 4.7-1.9 8.8-2 12.5-.3a26.7 26.7 0 0 1 14.2 15.2c1 2.9 1.1 4.6.3 5.1zm87.8-27c-1 .4-3.3 1-6.7 1.8-3.4.8-7.4 2.5-12.1 5a71.5 71.5 0 0 0-33.3 42.9 254.4 254.4 0 0 0-6.2 26.7c-.6 3.5-.8 5.2-.5 5.2-1 9-1 16.4-.1 22a38 38 0 0 0 4.1 13.2c1.9 3.2 4 5.4 6.6 6.7a20.3 20.3 0 0 0 13.9 1.8c2-.5 3.2-.7 3.7-.7 3.9-1.6 7.6-3.7 11.1-6.4a70.6 70.6 0 0 0 18.3-20.2c2.5-4 4.8-8.1 6.8-12.4a23.8 23.8 0 0 1 4.6-3.7c.8-.5 1.5-.7 2.1-.8.6 0 .9.2.9.7-2.3 7.3-5.4 14-9.5 20-4 6-8.5 11.3-13.2 15.8a82.6 82.6 0 0 1-14.4 11.2c-4.9 3-9.3 5-13.3 6.2-5.7 1-11.1 0-16.1-3.3-5-3.3-9-9.4-11.9-18.5a144 144 0 0 1-2.1-16.1c-.5-6-.2-11.8.7-17.7.8-11.3 2.9-21.8 6.2-31.4a107 107 0 0 1 12.6-25.5c5-7.4 10.8-13.5 17.2-18.3 6.4-4.8 13-8 20-9.8l3 .4c1.5.3 2.9.7 4.3 1.2s2.5 1.1 3.3 1.8c.8.7.8 1.4 0 2.2zm55.8 75.2l-.9 5a345 345 0 0 0-2.9 19.6c-.4 3.7-.6 7.3-.7 10.6 0 3.3.1 6.2.6 8.5s1.2 3.8 2.3 4.3c3 1.5 6.2 1 9.4-1.5s7-6.2 11.2-11.3c.4 0 .4.5.1 1.6-.3 1-.9 2.2-1.6 3.5l-2.2 3.8c-.7 1.3-1.3 2.1-1.7 2.5a33 33 0 0 1-11 8.5c-2.3 1-4.4 1.4-6.5 1.3-2-.1-3.8-1.3-5.1-3.6a18 18 0 0 1-1.2-5.9 63 63 0 0 1 .6-13.7l.6-4.4a108 108 0 0 1-9.6 14.8 60.1 60.1 0 0 1-10.6 11 18.3 18.3 0 0 1-9.6 4.3c-3 .2-5.2-1.5-6.8-5.1-1-3.5-1-7.4 0-11.7 1-4.3 2.3-8.2 4.2-11.7a126 126 0 0 1 8.8-13.2c3-4 6.3-7.4 9.8-10.2a35 35 0 0 1 10.9-6.1c3.8-1.3 7.8-1.6 11.9-.9zm-37.6 50.8c1.3.3 3.5-.7 6.4-3 3-2.3 6-5.4 9.2-9.5 3.2-4 6.1-8.8 8.7-14.2a56.3 56.3 0 0 0 5.1-17.1h-2.3a7 7 0 0 0-3.5 1.2c-5 3.3-9.4 7.2-13 11.7a66.6 66.6 0 0 0-8.4 13c-2 4.2-3.2 8-3.6 11.3-.4 3.3 0 5.5 1.4 6.6zm76.6-51.6a1170.5 1170.5 0 0 0 34.2-2.8c1.3.1 2.2.8 2.6 2.1.4 1.3-.1 2-1.6 2.3-5 .5-10.6 1.3-17 2.2-6.4 1-12.5 2.1-18.2 3.6.3 4.1.4 8.4.4 12.7 0 4.3.1 8.6.3 12.8.2 4.2.6 8.3 1.2 12.2.6 4 1.6 7.6 2.9 10.9 1.9 2.3 3.7 3.6 5.6 4 1.9.4 3.6.3 5.3-.3 1.7-.6 3.2-1.5 4.6-2.8l3.7-3.7c1-1 1.7-1 2.3 0 .6 1 0 2.3-1.7 4.2-.8 1-1.8 2-3 3s-2.6 2-4.3 2.7a18.2 18.2 0 0 1-12.3.7c-3-.8-5.3-3.3-6.8-7.4-1.5-4.1-2.6-9-3.3-14.5a199 199 0 0 1-1.5-17.3c-.3-6-.6-11.4-1-16.2a264.2 264.2 0 0 0-18.8 2.2c-1.2.1-2 0-2.4-.2a27 27 0 0 1-2.2-1.8c.1-.7.2-1.3.1-1.9v-1.5c0-.4.3-.8.8-1.2.5-.4 1.4-.7 2.7-1 2-.5 4.9-.8 8.7-.9a86 86 0 0 0 11.1-.9 438.8 438.8 0 0 0-1.1-21.6l-.1-6.8c0-.7.4-1.2 1.1-1.5.7-.3 1.6-.5 2.5-.6 1 0 1.8 0 2.6.4.8.3 1.3.8 1.6 1.5.4 1.2.7 3 .8 5.3a236 236 0 0 1 .2 22.1zm43.2 3l3.4-1.1c1.9-.6 3.4-.7 4.6-.3 3.9-.1 6.8.9 8.9 3 2 2.1 2.2 6.3.5 12.4a50.7 50.7 0 0 1-10.1 17 99.7 99.7 0 0 1-14.9 13c1.3 3.5 3.3 5.4 6 5.8 2.7.4 5.5 0 8.4-1.3 3-1.3 5.8-3 8.6-5.1a122.5 122.5 0 0 0 13.5-11.7c1.7-1.7 3.4-3.7 5.3-6.1.4-.3.6-.2.7.1l-.1 1.5-.6 2.8-1.2 2.5-1.7 2.4c-.7.9-1.7 1.9-2.9 3.1a94.7 94.7 0 0 0-4.4 4.8l-5.8 5.5a38.8 38.8 0 0 1-5.9 4.7 20.4 20.4 0 0 1-15.3 2.8c-2.7-1-4.8-2-6.4-3a15.2 15.2 0 0 1-5.6-6.4c-.4-1-.7-1.7-.8-2.4-.7-2.7-1-6.3-.8-10.8.1-4.5 1.5-10.4 4-17.6 1.7-3.7 3.6-6.9 5.6-9.5 2-2.6 4.3-4.6 7-6.1zm-8.8 35.4a58.8 58.8 0 0 0 12.7-9.7 39 39 0 0 0 5.4-7.3c1.5-2.7 2.4-5.5 2.5-8.4.4-2 .3-3.4-.2-4.2-.3-.4-.5-.6-.8-.6-2.3-1-4.5-.7-6.8 1a25 25 0 0 0-6.2 7.4 54 54 0 0 0-4.7 10.7c-1.3 4-1.9 7.6-1.9 11.1zm42.4-42c-.1-1.2.5-1.5 1.9-.9l4.3 1.9a310.9 310.9 0 0 1 1.8 12.4 442.7 442.7 0 0 1 1 12.6c1.2-3 2.7-5.9 4.4-8.5 1.7-2.6 4-4.8 6.7-6.7 2.7-1.9 6-3.2 9.8-4.1a51 51 0 0 1 13.7-.9c0 1-.4 2-1.1 2.7-.7.7-2.4 1.3-5.1 1.7-3.9.7-7.2 2-10.1 3.9a34 34 0 0 0-12.4 14.8 90.7 90.7 0 0 0-3.1 7.9 274.4 274.4 0 0 0-.9 12.1l-.2 7.2c0 2.3 0 4.2.3 5.5.1.7-.2 1.2-.9 1.5-.7.3-1.6.6-2.5.7-1 .1-1.8 0-2.6-.2-.8-.3-1.2-.7-1.2-1.4.3-13.7-.1-25.6-1.1-35.5l-2.7-26.7zm55-24.8c1.3-.3 2.1.5 2.4 2.4.3 1.9 0 3.3-.8 4.2a10 10 0 0 0-2.8 3.1c-.4.9-1.3 1.4-2.8 1.7-.8-.1-1.5-.2-2.1-.1-.6 0-1.1-1-1.5-3.3.5-1.5 1.4-3 2.5-4.4a12 12 0 0 1 5.1-3.6zm.6 26c.7 6.4 1.1 13.4 1.4 21.1.3 7.7.7 15.7 1.4 24.1.5 4.3 1 7.6 1.6 10 .5 2.4 1 4.7 1.2 6.8-2.1.4-3.8.4-5-.1-1.2-.5-2.3-1-3.4-1.7a1611.5 1611.5 0 0 1-2.9-43.6 618 618 0 0 0-.9-13c.5-.3 1-.7 1.3-1.2l1.1-1.4c.4-.4 1-.7 1.6-1 .7-.3 1.5-.3 2.6 0zm27 40.9zm0 0c0-.7.4-2 .9-3.8a78 78 0 0 1 2.5-7.1c1-2.7 2.2-5.5 3.5-8.5 1.3-3 2.6-5.7 4.1-8 1.5-2.3 3-4.2 4.5-5.5 1.5-1.3 3-1.7 4.3-1.2 3 1.3 5 3.3 6.2 5.8 1.2 2.5 2 5.4 2.6 8.7l1.6 10.9a49 49 0 0 0 3.6 12.6c.8 2 2 3.5 3.5 4.4a18.1 18.1 0 0 0 7.8 2.7c.9 0 1.2.3.9.7-3.3 2.5-6.2 3.4-8.6 2.6-2.4-.8-4.4-2.6-6.1-5.3a39 39 0 0 1-4.1-9.8 343.8 343.8 0 0 1-5.2-20c-.7-2.5-1.4-3.7-2.2-3.7-1.2.1-2.5 1.3-3.9 3.4a61.3 61.3 0 0 0-4.3 8 123 123 0 0 0-4.2 10.5 1169 1169 0 0 0-6.4 19.3l-1.2 4.4c-2 0-3.2 0-3.7.2-.5.1-1.2-.5-2.3-2 .7-11.7.9-22.8.7-33.3a853 853 0 0 0-.9-27.3c0-1.2.3-1.8.9-1.8.6 0 1.3.3 2 .8l2.3 1.6c.8.5 1.5.8 2 .8a627.3 627.3 0 0 1-.3 22 3920.4 3920.4 0 0 1-.5 17.9zm84.7-32.7h0zm-1-.1c-2.3-.1-5.4.9-9.5 2.9a52 52 0 0 0-25.2 36.2c0 1.5 0 2.6.2 3.4.1.5.6 1 1.4 1.4.8.4 1.8.5 3 .2 3.5-.8 6.7-2.6 9.7-5.3a58 58 0 0 0 8.2-9.3 86.5 86.5 0 0 0 10.1-18.2 23 23 0 0 0 2-11.3zm9.6-3.6l.3.1a71.4 71.4 0 0 0-3.1 11.7 317.8 317.8 0 0 0-4 27.2 194 194 0 0 1-1.3 9.9c1-1 2.6-2.3 4.7-3.8l6.1-4.4 7.6-5c.3.3.2.7-.1 1.4a69.2 69.2 0 0 1-4.5 6 281 281 0 0 1-8.6 9.3c-2.5 2.6-4.6 4.8-6.2 6.7a126.4 126.4 0 0 1-.2 4.6 187 187 0 0 0-.3 13.7 124 124 0 0 1-3.4 26.8c-.9 3.3-1.8 6-2.7 8-1 2-1.9 3.8-2.9 5.2l-3.3 4.7c-1 1.5-2.3 2.7-3.6 3.8l-5.4 3.8c-3 1.9-6.3 3.3-9.6 4.2a19 19 0 0 1-9.2.5c-2.8-.6-5.2-2.1-7.1-4.5-2-2.4-3-6-3.3-10.8-.3-5.3.7-10.6 2.8-15.8a75.6 75.6 0 0 1 16.2-25 430.2 430.2 0 0 1 10.5-10.8 55 55 0 0 1 4.3-3.7 356.3 356.3 0 0 0 10.6-8.5c.5-3.2.9-6.6 1-10.1v-10.9a44.3 44.3 0 0 1-15.1 17.9 19.2 19.2 0 0 1-7.1 3.1c-2.5.4-4.6.5-6.1.3a8.2 8.2 0 0 1-3.6-1.2 6.6 6.6 0 0 1-2-2.1c-.5-.8-.8-1.6-1.1-2.4-.7-3.5-.6-7 .1-10.7.7-3.7 1.8-7.2 3.3-10.5a74.3 74.3 0 0 1 11.5-18.1 43.1 43.1 0 0 1 9.8-8.1c2.3-1.5 5-2.8 8.1-4 3-.7 6.2-1 9.4-.9 3.2 0 5.8.8 7.8 2.3l-.3.1zm-14.9 70.3c.4-3 .3-5-.2-5.6-.3-.4-.6-.5-1-.4a303 303 0 0 0-13.4 11.4c-6.4 6-11.2 11.3-14.3 15.9a43.9 43.9 0 0 0-6.3 12.7c-1.5 4.3-2.3 8-2.5 11.3a16 16 0 0 0 2.5 9.5c3.3 2.5 7 3 10.9 1.5a33 33 0 0 0 10.9-7.1c3.9-4.4 7-10.6 9.4-18.5 2.4-8 3.7-18.2 4-30.7z" fill="#000" fill-rule="nonzero"/></g></svg>