<svg width="590" height="615" version="1" xmlns="http://www.w3.org/2000/svg" xmlns:xlink="http://www.w3.org/1999/xlink"><defs><path id="a" d="M0 0h357v307H0z"/><filter x="-357%" y="-6%" width="800%" height="112%" filterUnits="objectBoundingBox" id="c"><feOffset dx="3" dy="4" in="SourceAlpha" result="shadowOffsetOuter1"/><feGaussianBlur stdDeviation="2" in="shadowOffsetOuter1" result="shadowBlurOuter1"/><feColorMatrix values="0 0 0 0 0 0 0 0 0 0 0 0 0 0 0 0 0 0 0.5 0" in="shadowBlurOuter1" result="shadowMatrixOuter1"/><feMerge><feMergeNode in="shadowMatrixOuter1"/><feMergeNode in="SourceGraphic"/></feMerge></filter><filter x="-300%" y="-5%" width="700%" height="110%" filterUnits="objectBoundingBox" id="d"><feOffset dx="3" dy="4" in="SourceAlpha" result="shadowOffsetOuter1"/><feGaussianBlur stdDeviation="2" in="shadowOffsetOuter1" result="shadowBlurOuter1"/><feColorMatrix values="0 0 0 0 0 0 0 0 0 0 0 0 0 0 0 0 0 0 0.5 0" in="shadowBlurOuter1" result="shadowMatrixOuter1"/><feMerge><feMergeNode in="shadowMatrixOuter1"/><feMergeNode in="SourceGraphic"/></feMerge></filter><filter x="-104%" y="-4%" width="309%" height="109%" filterUnits="objectBoundingBox" id="e"><feOffset dx="3" dy="4" in="SourceAlpha" result="shadowOffsetOuter1"/><feGaussianBlur stdDeviation="2" in="shadowOffsetOuter1" result="shadowBlurOuter1"/><feColorMatrix values="0 0 0 0 0 0 0 0 0 0 0 0 0 0 0 0 0 0 0.5 0" in="shadowBlurOuter1" result="shadowMatrixOuter1"/><feMerge><feMergeNode in="shadowMatrixOuter1"/><feMergeNode in="SourceGraphic"/></feMerge></filter><filter x="-833%" y="-15%" width="1733%" height="131%" filterUnits="objectBoundingBox" id="f"><feOffset dx="3" dy="4" in="SourceAlpha" result="shadowOffsetOuter1"/><feGaussianBlur stdDeviation="2" in="shadowOffsetOuter1" result="shadowBlurOuter1"/><feColorMatrix values="0 0 0 0 0 0 0 0 0 0 0 0 0 0 0 0 0 0 0.5 0" in="shadowBlurOuter1" result="shadowMatrixOuter1"/><feMerge><feMergeNode in="shadowMatrixOuter1"/><feMergeNode in="SourceGraphic"/></feMerge></filter><filter x="-800%" y="-14%" width="1700%" height="126%" filterUnits="objectBoundingBox" id="g"><feOffset dx="3" dy="4" in="SourceAlpha" result="shadowOffsetOuter1"/><feGaussianBlur stdDeviation="2" in="shadowOffsetOuter1" result="shadowBlurOuter1"/><feColorMatrix values="0 0 0 0 0 0 0 0 0 0 0 0 0 0 0 0 0 0 0.5 0" in="shadowBlurOuter1" result="shadowMatrixOuter1"/><feMerge><feMergeNode in="shadowMatrixOuter1"/><feMergeNode in="SourceGraphic"/></feMerge></filter><filter x="-267%" y="-12%" width="633%" height="123%" filterUnits="objectBoundingBox" id="h"><feOffset dx="3" dy="4" in="SourceAlpha" result="shadowOffsetOuter1"/><feGaussianBlur stdDeviation="2" in="shadowOffsetOuter1" result="shadowBlurOuter1"/><feColorMatrix values="0 0 0 0 0 0 0 0 0 0 0 0 0 0 0 0 0 0 0.5 0" in="shadowBlurOuter1" result="shadowMatrixOuter1"/><feMerge><feMergeNode in="shadowMatrixOuter1"/><feMergeNode in="SourceGraphic"/></feMerge></filter><filter x="-267%" y="-12%" width="633%" height="123%" filterUnits="objectBoundingBox" id="i"><feOffset dx="3" dy="4" in="SourceAlpha" result="shadowOffsetOuter1"/><feGaussianBlur stdDeviation="2" in="shadowOffsetOuter1" result="shadowBlurOuter1"/><feColorMatrix values="0 0 0 0 0 0 0 0 0 0 0 0 0 0 0 0 0 0 0.5 0" in="shadowBlurOuter1" result="shadowMatrixOuter1"/><feMerge><feMergeNode in="shadowMatrixOuter1"/><feMergeNode in="SourceGraphic"/></feMerge></filter><path id="j" d="M279 0l309 299L0 333z"/><path d="M258 29c75 58 151 120 284 231M255 17c100 95 203 189 260 241m27 0c-123 3-244 7-541 27m540-25c-183 7-369 15-540 26m-1-1c57-58 114-111 257-261M17 288c51-56 101-115 224-261m16-2l2 2m-2-2l2 2" id="m"/><filter x="-3%" y="0%" width="105%" height="108%" filterUnits="objectBoundingBox" id="l"><feMorphology radius="7" operator="dilate" in="SourceAlpha" result="shadowSpreadOuter1"/><feOffset dx="4" dy="6" in="shadowSpreadOuter1" result="shadowOffsetOuter1"/><feMorphology radius="7" in="SourceAlpha" result="shadowInner"/><feOffset dx="4" dy="6" in="shadowInner" result="shadowInner"/><feComposite in="shadowOffsetOuter1" in2="shadowInner" operator="out" result="shadowOffsetOuter1"/><feGaussianBlur stdDeviation="2" in="shadowOffsetOuter1" result="shadowBlurOuter1"/><feColorMatrix values="0 0 0 0 0 0 0 0 0 0 0 0 0 0 0 0 0 0 0.5 0" in="shadowBlurOuter1"/></filter></defs><g fill="none" fill-rule="evenodd"><g transform="scale(-1 1) rotate(4 -4281 -6808)"><mask id="b" fill="#fff"><use xlink:href="#a"/></mask><path d="M4 2L2 4m2-2L2 4m6-2c0 3-3 3-7 8m8-8l-7 8m12-7c-2 3-6 8-13 12M15 2C11 5 9 9 3 17M19 3C14 9 7 14 1 23M20 1L1 22M25 3C20 7 14 13 1 29M25 1C17 13 9 22 2 28M31 4C25 9 18 14 2 35M30 3C24 8 18 15 2 35M35 4C25 15 13 27 3 41M36 3C26 12 17 24 1 41M39 0C30 13 17 28 1 48M41 1L1 47M44 4L3 54M47 1L2 52M51 2C38 15 30 28 0 59M51 2L1 59M55 2C35 24 18 47 1 64M56 2L1 66M62 3C42 22 26 46 0 72M63 2L2 72M66 2C56 17 42 33 1 76M66 2C51 21 34 39 2 76M72 3C57 22 42 37 3 83M73 2C51 30 26 56 1 84M76 1C61 21 44 42 3 90M78 2L2 90M82 1C62 27 40 49 1 95M84 1C59 32 34 61 2 96M90 0L0 103M89 2L2 101M92 3C67 33 39 62 4 107M93 1C68 34 41 63 3 107M100 2C76 29 54 53 2 115M99 3C72 30 49 59 1 113M103 1C80 30 59 54 2 121M103 2L2 120M111 3C84 29 62 59 4 126M109 2C79 36 50 69 3 126M116 1C81 42 46 78 1 133M115 3C77 44 40 86 1 132M119 2C81 46 40 91 2 137M120 2C89 37 56 73 3 137M127 2C96 35 70 69 0 143M125 2L2 144M131 3L3 150M130 3C97 38 66 76 1 149M135 2C83 62 33 122 3 155M136 2C107 33 79 65 2 157M143 2C96 57 48 113 1 162M141 1C96 54 53 106 2 163M145 1C90 66 32 132 4 167M147 2C105 49 61 98 3 169M151 2C104 54 58 113 1 176M152 2C123 38 90 74 2 175M156 1C114 52 71 104 2 181M157 1L2 180M161 0C121 50 73 105 3 187M162 2C106 64 50 130 2 186M167 4C131 45 100 84 0 192M168 1C110 67 55 133 1 192M172 2C106 80 43 155 2 200M173 2C114 66 58 133 1 198M179 3C118 76 54 147 3 204M179 2C119 67 62 133 3 206M184 2C144 48 102 98 2 211M184 3C127 68 71 134 2 211M189 1C142 60 90 116 3 219M190 3C121 78 53 158 2 218M193 2C126 83 54 162 0 223M194 2C124 80 56 161 1 222M199 3C156 54 108 105 1 230M200 1C158 51 117 101 3 229M205 4C138 78 73 154 1 234M204 2C167 51 125 97 2 235M210 0C146 81 78 157 0 243M211 2C132 88 56 175 1 241M217 1L1 249M215 1C153 76 88 151 1 248M220 0C141 93 63 186 4 252M220 2C158 70 100 140 2 254M224 3C169 66 114 131 2 258M226 3C166 70 108 138 3 260M233 0L2 266M231 1C185 58 137 111 2 266M238 3C164 81 96 163 0 272M236 2C184 64 134 121 1 271M244 3L2 277M242 1L1 278M247 3C195 60 143 122 3 283M247 3C164 102 80 198 2 284M255 4C176 91 98 178 4 291M253 2C177 94 98 183 2 290M257 2C176 94 97 186 0 295M257 2C191 82 123 160 2 297M262 1C178 100 91 199 2 302M264 1L2 303M268 2C209 72 150 145 4 307M268 3C192 93 112 184 1 309M276 4C183 106 90 213 6 307M273 1L6 310M281 3C183 109 86 221 11 309M279 3C182 115 85 229 12 308M286 1L19 310M284 3C177 122 73 244 18 309M292 0C210 91 132 184 24 309M289 3L23 310M294 2C192 125 87 245 29 310M295 2C193 121 89 238 29 308M301 1C198 121 94 238 34 309M301 2C244 70 187 138 33 309M307 1C210 110 118 217 38 309M305 2L38 309M313 1C206 122 101 245 44 308M311 1C213 118 110 234 45 310M317 3C243 87 170 170 50 311M315 3C240 84 168 170 49 309M321 1C217 118 117 235 57 308M322 2L54 310M328 3C241 98 157 194 60 308M327 1C264 72 203 141 59 309M330 2C261 89 186 171 64 310M332 1C240 107 148 211 66 310M337 1C270 81 206 156 72 310M338 1C237 117 138 231 72 309M344 2C292 65 237 125 77 308M342 1C237 124 131 247 75 309M346 0A7206 7206 0 0 1 82 310M349 2C283 80 215 159 81 309M354 1C287 75 224 147 86 308M354 2C259 105 168 209 87 308M361 2C287 79 218 159 94 309M358 2L92 309M358 9C303 75 245 143 98 307M360 7L98 308M358 14c-69 78-136 153-254 293M360 14c-90 104-181 208-258 294M357 19c-54 61-109 128-247 288M359 20c-51 57-100 113-251 289M357 24L115 309M359 25c-66 79-132 156-247 283M357 34c-60 67-118 137-239 276M358 32L119 308M358 40L123 310M358 38c-78 92-157 184-234 271M361 46c-76 86-148 172-232 261M359 44c-59 71-121 142-229 265M359 52L135 308M358 51c-62 68-119 137-223 258M358 56c-54 66-114 133-218 251M359 56c-77 89-154 179-220 253M357 63c-73 85-145 168-210 246M359 62c-78 88-157 177-215 247M361 68c-42 50-86 101-212 241M360 70c-76 88-151 175-211 240M357 74c-51 64-108 125-201 237M358 76c-42 53-89 105-202 233M359 81c-56 66-116 134-198 226M358 80c-63 75-128 149-197 229M360 87c-71 84-142 165-196 223M359 86c-65 77-130 152-194 223M357 93c-56 69-116 140-186 217M358 93c-45 54-93 109-187 216m189-209c-50 56-99 115-185 209m185-209L176 310m182-205c-50 58-98 117-177 203m179-203L182 309m175-199c-40 50-86 99-168 199m169-198c-54 61-108 123-170 199m170-191L194 308m164-191c-61 73-125 145-166 192m165-183c-51 57-104 117-158 181m160-182c-57 63-113 130-161 183m159-179c-42 51-82 101-154 181m157-180c-54 59-108 120-157 180m158-173c-34 36-69 76-152 172m151-173c-41 44-81 91-151 172m150-165c-42 51-86 99-144 167m145-167c-60 64-115 129-146 166m145-161c-51 58-101 119-139 163m139-163L220 309m140-153L223 310m135-156L224 309m136-147c-50 52-97 108-132 146m130-148L230 309m129-142c-33 33-62 70-125 143m126-144L234 310m126-138c-27 27-53 57-118 138m117-138c-32 34-61 69-119 138m118-130c-31 31-59 67-112 128m114-129c-39 42-76 85-115 129m113-123c-29 33-53 65-107 126m109-126c-28 29-53 59-109 125m109-121c-29 32-57 62-103 120m101-119L257 308m101-110c-19 20-38 45-97 112m98-114l-97 112m98-106l-93 106m91-105c-32 38-66 79-92 105m93-99c-19 18-35 42-86 100m87-99c-21 21-41 43-87 99m87-94c-23 22-40 47-82 95m80-95c-23 28-47 57-81 94m82-88c-19 22-35 43-77 89m77-89l-76 88m74-84c-12 19-26 38-68 85m71-83c-27 31-54 63-73 81m73-74l-67 73m66-73l-66 75m68-70l-63 70m61-71c-23 25-44 52-61 72m60-64c-16 20-37 41-56 64m57-65l-55 64m53-57l-46 58m49-58c-14 13-27 29-50 58m50-52c-16 16-31 33-46 53m45-53l-45 51m47-44c-18 16-31 33-43 46m40-46c-13 17-29 32-39 44m41-39l-34 38m32-39c-10 11-18 23-32 41m31-35l-28 32m29-32l-27 35m27-28c-6 10-16 19-21 27m22-27c-6 5-10 11-23 28m24-24l-19 22m18-20c-5 4-8 8-18 21m17-16c-1 6-6 9-13 15m15-13c-5 3-10 8-13 14m11-9l-6 8m7-8l-8 9m8-2l-2 2m2-2l-2 2" stroke="#FF00D6" mask="url(#b)"/></g><path d="M486 281c-96 4-194 12-356 26m355-28c-79 11-158 17-355 29m0-1c5 86 10 174 22 306m-23-306c11 122 19 243 23 306m-3 0c114-13 225-20 358-24m-357 24c103-7 205-16 357-25m1-1l-23-303m21 304l-20-305m-1-1v-2m0 2v-2"/><path d="M3 0C0 66 5 136 2 291M5 0c-8 87-6 177 2 289" filter="url(#c)" transform="matrix(-1 0 0 1 127 296)" stroke="#000" stroke-width="16"/><path d="M3 1C1 74 6 152 3 326M6 0c-8 98-6 199 2 324" filter="url(#d)" transform="scale(1 -1) rotate(2 17612 14160)" stroke="#000" stroke-width="16"/><g filter="url(#e)" transform="scale(1 -1) rotate(88 566 -39)" stroke="#000" stroke-width="16"><path d="M9 1c-9 89 7 183-1 394M17 1C-8 119-2 241 23 392"/></g><g stroke="#000" stroke-width="16"><path d="M1 0v111M2 0c-3 33-2 68 1 110" filter="url(#f)" transform="matrix(-1 0 0 1 267 339)"/><path d="M1 0v124M2 0c-3 37-2 76 1 123" filter="url(#g)" transform="scale(1 -1) rotate(2 13314 11514)"/><path d="M3 0C0 34 6 70 3 150M6 0c-9 45-7 92 3 149" filter="url(#h)" transform="scale(1 -1) rotate(88 442 -15)"/><path d="M4 0C0 34 6 70 3 150M7 0C-3 45-1 91 9 149" filter="url(#i)" transform="matrix(0 -1 -1 0 412 343)"/></g><g><g transform="translate(-11 -1)"><mask id="k" fill="#fff"><use xlink:href="#j"/></mask><path d="M2 2L1 4m1-2L1 4m6-2c-1 5-4 6-5 9m6-8l-6 8m11-9L2 19M14 4C9 9 6 15 1 19M20 1C15 12 9 17 2 27M20 2L1 26M28 1C17 15 11 20 2 33M26 2C17 16 7 28 0 35M32 4C19 16 8 29 3 42M32 2c-5 9-11 16-30 40M40 3C31 16 20 27 1 52M40 3L1 50M47 0C35 14 27 27 1 58M46 3C33 17 20 33 0 59M52 3C33 25 19 46 2 68M52 2C38 19 25 38 2 65M59 3C37 27 19 52 3 73M57 3C39 28 19 53 2 73M62 0C37 36 14 63 1 79M63 2C45 27 24 50 1 83M68 2L2 91M69 4C49 27 29 54 0 90M78 1C49 40 19 73 3 97M76 3L1 97M84 3C58 37 30 64 1 105M81 3L2 105M88 2C56 46 21 88-1 111M88 2L1 113M97 3C71 32 46 63 2 122M96 2L1 119M100 4L1 130M100 1L1 128M109 5C69 48 30 101 1 136M106 2C66 52 26 105 2 137M113 5C90 34 63 63 3 141M114 2C89 34 66 65 2 144M119 1C90 40 58 82 1 154M119 1C77 57 35 109 1 151M124 1C96 44 64 83 2 159M126 1C90 47 55 92 1 158M130 4C93 45 62 89 3 167M132 2C101 38 73 75 1 166M139 0L3 174M138 2L1 174M142 2C109 48 71 96 1 184M143 3C105 48 69 96 0 182M151 4C97 69 45 135 2 190M151 1C107 56 65 111 1 190M158 5L0 198M156 2L2 197M162 1L2 203M163 2C125 53 87 100 2 207M167 4C123 61 78 121 0 211M168 2L2 212M176 1C135 54 94 100 2 223M175 2C116 74 58 148 1 220M181 3L-1 231M182 2C117 81 55 161 1 229M189 1C152 51 112 102 1 235M186 1C136 65 86 128 2 238M195 2C139 70 86 134 0 245M192 4C126 88 61 172 2 245M199 1C143 71 90 147-1 253M200 2C148 68 97 133 1 251M203 3C157 66 109 129 1 262M206 2C157 66 110 127 2 260M212 4C147 88 77 170 3 268M211 2C127 106 43 214 1 268M218 4L3 273M218 1L2 275M226 2C175 63 126 127 2 281M223 2C135 112 48 219 0 282M232 4L2 289M230 2L2 292M235 5C178 69 125 137 3 301M236 4C151 106 67 215 1 299M240 4C188 74 134 144 0 305M243 2C176 91 105 181 2 308M248 3C173 97 101 186 0 316M248 1C153 118 62 233 1 314M257 1C161 119 69 238 2 317M256 2C185 88 118 174 4 318M259 3C173 109 93 217 13 317M260 1C175 112 89 222 11 319M268 2C216 69 162 133 19 318M268 2L16 318M275 4C183 115 94 231 24 319M274 2C182 115 92 226 24 318M281 4L29 316M279 1L28 318M285 3C233 67 183 135 37 319M285 1C234 68 183 132 34 318M290 1C229 83 161 164 42 321M292 2C218 92 147 183 41 319M298 2C221 104 142 202 49 316M299 3C221 98 146 193 47 318M304 4C217 114 127 222 53 320M304 4C208 121 112 242 54 318M310 2C250 76 190 152 59 320M311 4L61 319M315 0C220 128 121 249 64 316M315 1C258 76 199 149 66 320M324 2C270 69 213 139 73 317M323 3L72 318M328 3C234 116 145 233 78 321M328 2C235 118 143 233 79 319M335 1C237 125 140 247 86 318M334 3C252 108 168 213 84 318M342 5C257 110 172 217 92 319M341 2C255 115 167 225 90 318M346 3C289 84 224 161 97 320M348 1C287 82 222 160 96 318M352 0c-58 75-114 148-251 318M353 2L103 319M361 4c-83 97-163 200-253 314M360 2L108 318M365 3L116 321M366 3L116 320M371 2c-86 113-173 224-250 319M371 2C271 123 175 248 120 319M377 0a7843 7843 0 0 0-249 321M378 3c-94 114-185 229-250 315M384 0c-66 81-130 164-252 320M384 3L134 317M392 0c-50 66-99 129-250 320M389 2L140 319M396 3c-76 98-150 193-252 318M396 1c-83 103-163 205-249 317M401 2c-51 70-108 137-250 315M402 2L151 318M407 2c-60 79-118 150-251 314M409 1L158 318M416 5c-74 89-145 176-254 312M416 2L164 318M422 0c-51 68-101 129-251 321M420 3c-68 81-135 168-250 317M426 1c-79 104-162 212-248 319M427 4L176 320M432 2L182 317M433 2L182 318M438 1c-68 82-129 168-251 317M438 1c-58 77-119 155-248 317M447 0c-98 124-198 250-254 318M445 3c-85 106-170 213-250 316M450 5L203 316M452 2c-92 114-182 230-250 316M456 3c-68 97-142 190-247 313M458 2c-57 70-114 142-251 317M465 5c-68 78-132 158-250 311M464 3L215 319M472 2L219 318M470 3c-74 98-150 193-249 316M474 4c-51 68-102 134-246 316M475 2c-71 95-144 187-249 316M481 3c-68 82-133 171-247 316M483 2c-89 115-180 230-250 316M488 5c-97 120-194 244-248 316M488 1L237 319M496 1c-85 112-173 218-251 316M494 3L245 318M501 3c-76 98-154 198-250 316M501 3L251 319M508 5c-75 94-152 188-250 313M506 2L257 318M514 1c-73 98-149 193-251 317M514 1c-93 115-182 230-251 319M518 2c-89 116-183 235-250 315M519 1c-70 91-140 179-250 318M526 3c-87 114-178 228-252 318M525 4c-86 110-174 223-251 313M530 4c-51 66-105 131-251 315M532 4L282 319M538 3c-55 67-115 140-253 318M538 3c-94 121-190 242-250 315M546 4c-68 83-138 167-251 312M545 3c-88 104-172 210-253 315M552 3c-83 100-165 204-254 317M551 4c-66 78-130 161-252 314M558 1c-96 121-185 237-254 318M555 3c-50 66-103 128-248 315M564 1c-73 94-144 185-251 316M563 3c-73 86-142 175-251 316M567 4L318 320M569 1c-57 74-113 144-252 317M576 1c-96 114-186 229-253 318M574 2c-94 124-191 246-251 316M581 4c-53 62-104 130-249 313M581 3c-72 89-145 176-251 316M589 0c-62 75-120 144-252 317M588 4c-75 92-149 184-251 315M590 6c-84 105-167 212-246 313M591 7L342 319M589 13c-74 97-148 189-240 307M590 13c-57 75-118 146-241 306M592 20c-57 76-116 144-238 299M589 21c-82 106-167 214-234 297M592 30c-87 110-171 218-232 288M590 29c-57 72-118 147-229 290M588 39c-79 97-155 197-218 280M589 37L367 318M590 43c-59 76-116 150-218 275M589 46c-76 101-154 198-216 272M588 52c-54 67-107 138-210 265M591 53c-46 58-93 119-212 264M591 63c-62 76-123 156-205 254M590 61L385 318M590 70c-50 60-100 124-198 247M590 69L392 320M591 77c-50 61-94 119-193 241M590 77c-65 83-130 166-192 241M590 85c-42 51-82 106-186 235M589 83c-59 81-121 160-185 235M589 91c-66 82-130 168-178 230M589 91c-69 92-140 181-179 227M590 98c-48 64-101 128-174 219m175-217c-42 52-82 102-174 220m173-214L421 317m170-211c-63 79-123 155-167 214m164-203c-60 80-123 156-158 204m160-206c-61 79-123 156-162 203m163-194c-41 46-75 94-156 195m156-195c-33 38-64 76-155 194m154-188c-36 45-71 90-147 191m148-191L442 319m150-179c-55 63-107 129-143 179m142-180c-54 66-107 134-143 180m141-175c-33 45-66 91-134 176m136-174L454 318m136-164L460 316m130-162c-37 49-76 98-131 164m130-158c-32 49-71 96-121 157m121-154c-30 36-60 76-123 155m126-147L474 319m117-148c-35 41-68 82-120 149m117-141c-28 34-52 68-112 138m115-139c-28 33-57 71-112 140m111-135c-22 34-45 62-107 135m106-132c-40 51-80 103-105 133m106-126c-27 35-52 65-98 127m98-127L490 318m100-119c-20 26-39 54-93 118m94-117l-94 119m91-112c-30 44-67 88-83 111m86-109c-28 33-54 64-88 110m87-101c-25 34-55 66-80 98m81-100c-18 22-37 44-83 104m83-94l-77 94m76-96c-21 26-42 51-75 95m76-89l-70 88m68-87c-19 24-38 48-67 88m70-80c-24 32-49 57-64 79m63-80l-64 82m63-73c-19 22-38 51-55 71m55-70l-56 71m54-62c-20 25-37 50-50 60m53-62c-15 15-26 32-51 62m49-55c-15 19-26 39-44 59m46-59c-16 18-29 35-45 57m43-46c-10 12-21 24-35 43m37-46c-12 15-23 31-39 49m37-39c-6 5-13 17-31 40m32-41l-32 40m30-32l-22 30m23-30c-5 9-14 17-25 33m25-24c-1 3-8 9-20 24m22-25l-21 23m19-17c-2 7-7 9-10 19m11-18c-4 5-9 9-13 16m13-8l-8 9m8-10l-7 10m7-2l-1 1m1-1l-1 2" stroke="#002988" mask="url(#k)"/></g><g transform="translate(36 14)" stroke-linecap="square" stroke-linejoin="round"><use fill="#000" filter="url(#l)" xlink:href="#m"/><use stroke="#000" stroke-width="14" xlink:href="#m"/></g></g></g></svg>