<svg width="290" height="270" version="1" xmlns="http://www.w3.org/2000/svg"><g stroke="#000" stroke-width="7" fill="none" fill-rule="evenodd" stroke-linecap="round" stroke-linejoin="round"><path d="M236 108C215 89 138 4 117 4 96 5 12 114 5 127s24-10 56-19c15-4 37-12 64-12 24 0 75 6 85 21 9 14 9 134 0 142-10 8-149 12-159 0-11-12-19-116 0-127 19-12 112-12 127 0s11 83 0 95-83 7-95 0-6-57 0-63c5-7 52-6 63 0 11 5 8 24 0 31-5 5-15 5-32 0M272 127l-7 34-8 17c-4 14-5 14-7 32-1 11 0 20 4 25 1 3 3 6 7 9 4 4 15 4 20-9 3-8 5-21 5-40-2-18-6-33-14-45-11-17-15-23-36-42"/></g></svg>